<?xml version="1.0" encoding="utf-8"?>
<!-- Generator: Adobe Illustrator 24.0.3, SVG Export Plug-In . SVG Version: 6.00 Build 0)  -->
<svg version="1.1" id="レイヤー_1" xmlns="http://www.w3.org/2000/svg" xmlns:xlink="http://www.w3.org/1999/xlink" x="0px"
	 y="0px" width="68px" height="34px" viewBox="0 0 68 34" style="enable-background:new 0 0 68 34;" xml:space="preserve">
<style type="text/css">
	.st0{fill:none;}
	.st1{fill:#FFFFFF;}
	.st2{fill:#0082CA;}
</style>
<rect class="st0" width="68" height="34"/>
<g>
	<path class="st1" d="M61.8,9.8c-0.8-2.4-3-4.1-5.6-4.1c-2.6,0-4.8,1.7-5.6,4.1l-1.9,5.8V6.1H38.3c-1.9,0-3.5,0.7-4.8,1.9V6.1H22.9
		c-2,0-3.8,0.8-5,2.2V6.1h-10c-4.3,0-7.8,3.5-7.8,7.8c0,2.1,0.8,3.9,2.1,5.3H0.1v9.1h10c2.8,0,5.3-1.5,6.7-3.8
		c1.1,2.2,3.5,3.8,6.1,3.8h10.6v-1.9c1.2,1.2,2.9,1.9,4.8,1.9h29.6L61.8,9.8z"/>
	<g>
		<g>
			<path class="st2" d="M10.1,20.8H1.6v2.7h8.4c1.6,0,3-1.3,3-3c0-1.6-1.3-3-3-3H7.9c-2,0-3.6-1.6-3.6-3.6c0-2,1.6-3.6,3.6-3.6h8.4
				V7.7H7.9c-3.5,0-6.3,2.8-6.3,6.3c0,3.5,2.8,6.3,6.3,6.3h2.2c0.2,0,0.3,0.1,0.3,0.3C10.4,20.7,10.3,20.8,10.1,20.8z"/>
			<path class="st2" d="M7.9,13.6h8.4v-2.7H7.9c-1.6,0-3,1.3-3,3c0,1.6,1.3,3,3,3h2.2c2,0,3.6,1.6,3.6,3.6c0,2-1.6,3.6-3.6,3.6H1.6
				v2.7h8.4c3.5,0,6.3-2.8,6.3-6.3s-2.8-6.3-6.3-6.3H7.9c-0.2,0-0.3-0.1-0.3-0.3C7.6,13.7,7.7,13.6,7.9,13.6z"/>
		</g>
		<g>
			<path class="st2" d="M38.4,10.9c-1.1,0-2,0.9-2,2v8.5c0,1.1,0.9,2,2,2h5.5v-5.9h-4.2v2.7h1.6v0.6h-1.6c-0.3,0-0.6-0.3-0.6-0.6
				v-5.9c0-0.3,0.3-0.6,0.6-0.6h7.5v-2.7H38.4z"/>
			<path class="st2" d="M55,23.5h6.2L57,11c-0.1-0.3-0.4-0.6-0.8-0.6c-0.4,0-0.7,0.2-0.8,0.6l-5.4,15.8h3.1l1.9-5.6V23.5z
				 M56.1,17.8l0.9,2.7h-1.8L56.1,17.8z"/>
			<path class="st2" d="M60.3,10.4c-0.5-1.8-2.2-3.1-4.1-3.1c-1.9,0-3.6,1.3-4.1,3l-4.9,14.5V14.2h-7.5v2.7h4.9v7.2h-6.1
				c-1.5,0-2.7-1.2-2.7-2.7V13c0-1.5,1.2-2.7,2.7-2.7h8.8V7.7c0,0-8.8,0-8.8,0C35.4,7.7,33,10,33,13l0,8.4c0,2.9,2.4,5.3,5.3,5.3
				h10.9l5.5-16c0.2-0.6,0.7-1,1.4-1c0.7,0,1.2,0.4,1.4,1L62,24.1h-7v2.7h10.7h0L60.3,10.4z"/>
		</g>
		<g>
			<path class="st2" d="M22.9,24.1c-1.5,0-2.7-1.2-2.7-2.7l0-8.5c0-1.5,1.2-2.7,2.7-2.7H32V7.7l-9.1,0c-2.9,0-5.3,2.4-5.3,5.3l0,8.4
				c0,2.9,2.4,5.3,5.3,5.3H32v-2.7H22.9z"/>
			<path class="st2" d="M23.6,20.2l6.6,0v-2.7h-9.2v3.9c0,1.1,0.9,2,2,2H32v-2.7h-7.8C23.8,20.8,23.6,20.5,23.6,20.2z"/>
			<path class="st2" d="M30.1,14.2l-6.6,0c0-0.3,0.3-0.6,0.6-0.6H32v-2.7h-9.1c-1.1,0-2,0.9-2,2v3.9h9.2V14.2z"/>
		</g>
	</g>
	<g>
		<path class="st1" d="M64.2,9.9c0.6,0,1.1-0.2,1.5-0.6c0.4-0.4,0.6-0.9,0.6-1.5c0-0.6-0.2-1.1-0.6-1.5c-0.4-0.4-0.9-0.6-1.5-0.6
			c-1.2,0-2.1,0.9-2.1,2.1c0,0.6,0.2,1.1,0.6,1.5C63.1,9.6,63.6,9.9,64.2,9.9z M62.4,7.8c0-0.5,0.2-0.9,0.5-1.3
			C63.2,6.2,63.7,6,64.2,6c0.5,0,0.9,0.2,1.3,0.5C65.8,6.8,66,7.3,66,7.8c0,1-0.8,1.8-1.8,1.8c-0.5,0-0.9-0.2-1.3-0.5
			C62.6,8.7,62.4,8.3,62.4,7.8z"/>
		<path class="st1" d="M63.6,8v1h-0.3V6.6h0.9c0.3,0,0.5,0,0.7,0.1c0.2,0.1,0.2,0.3,0.2,0.5c0,0.5-0.4,0.6-0.5,0.6l0.6,1h-0.4
			l-0.6-1H63.6z M63.6,7.7h0.6c0.1,0,0.2,0,0.3,0c0.2-0.1,0.3-0.2,0.3-0.4c0-0.1,0-0.2-0.1-0.3c-0.1-0.1-0.3-0.1-0.4-0.1h-0.6V7.7z"
			/>
	</g>
</g>
</svg>
