<?xml version="1.0" encoding="utf-8"?>
<!-- Generator: Adobe Illustrator 24.0.3, SVG Export Plug-In . SVG Version: 6.00 Build 0)  -->
<svg version="1.1" id="レイヤー_1" xmlns="http://www.w3.org/2000/svg" xmlns:xlink="http://www.w3.org/1999/xlink" x="0px"
	 y="0px" width="80px" height="12px" viewBox="0 0 80 12" style="enable-background:new 0 0 80 12;" xml:space="preserve">
<style type="text/css">
	.st0{fill:#FFFFFF;}
</style>
<g>
	<path class="st0" d="M6.9,7c0.8-0.7,1.6-1.8,1.9-2.4C8.5,4.7,6.8,5,5.1,5.3v3.2c0,0.7,0.2,1,1.5,1c1.3,0,2.6-0.2,3.8-0.4l0,1.6
		C9.4,10.9,8,11,6.7,11c-2.7,0-3.1-0.7-3.1-2.1V5.6C2.5,5.9,1.5,6.1,1,6.2L0.7,4.6c0.6-0.1,1.6-0.3,2.8-0.5V2.4c0-0.4,0-1-0.1-1.4
		h1.8C5.2,1.4,5.1,2,5.1,2.4v1.4c1.8-0.3,3.4-0.7,4-0.8C9.4,3,9.7,2.9,10,2.8l1.2,0.9c-0.1,0.2-0.3,0.4-0.4,0.6
		c-0.5,1-1.6,2.7-2.5,3.5L6.9,7z"/>
	<path class="st0" d="M20,3.2c0.3,0,0.6,0,0.9-0.1l1,0.5c0,0.2-0.1,0.5-0.1,0.6c0,1.3-0.2,4.7-0.7,5.9c-0.3,0.6-0.7,0.9-1.5,0.9
		c-0.7,0-1.4,0-2-0.1l-0.2-1.6c0.6,0.1,1.2,0.2,1.7,0.2c0.4,0,0.6-0.1,0.7-0.4c0.3-0.8,0.5-3.2,0.5-4.4h-2.7c-0.4,3.2-1.6,5-3.7,6.6
		L12.5,10C13,9.8,13.6,9.4,14,8.9c1.1-1.1,1.7-2.5,2-4.3h-1.6c-0.4,0-1.1,0-1.6,0.1V3.1c0.5,0.1,1.1,0.1,1.6,0.1h1.7
		c0-0.3,0-0.7,0-1c0-0.3,0-0.8-0.1-1.1h1.8c0,0.3-0.1,0.8-0.1,1.1c0,0.4,0,0.7,0,1.1H20z M20.9,3c-0.2-0.5-0.6-1.2-0.9-1.7l0.9-0.4
		c0.3,0.4,0.7,1.2,0.9,1.6L20.9,3z M22.4,0.4c0.3,0.5,0.8,1.2,1,1.6l-1,0.4c-0.2-0.5-0.6-1.2-1-1.7L22.4,0.4z"/>
	<path class="st0" d="M27.9,6.7c-0.4,0.1-0.8,0.2-1.2,0.3v3c0,0.7-0.1,1-0.5,1.2c-0.4,0.2-0.9,0.3-1.7,0.3c0-0.3-0.2-0.9-0.4-1.3
		c0.4,0,0.9,0,1,0c0.1,0,0.2,0,0.2-0.2V7.4c-0.4,0.1-0.8,0.2-1.1,0.3L24,6.4c0.4-0.1,0.9-0.2,1.5-0.3V3.9h-1.3V2.6h1.3V0.4h1.3v2.3
		h1.1v1.3h-1.1v1.7l1-0.3L27.9,6.7z M33,7.6c0.6,0.9,1.6,1.8,2.5,2.4c-0.3,0.3-0.7,0.7-0.9,1.1c-0.8-0.5-1.6-1.4-2.3-2.4v2.8h-1.3
		V8.6c-0.7,1-1.7,1.9-2.6,2.5c-0.2-0.3-0.6-0.9-0.9-1.1c1.1-0.5,2.2-1.4,2.8-2.4h-2.1V6.3h2.8V5.1h1.3v1.2h2.9v1.2H33z M34.9,1.6
		c-1.8,0.5-4.4,0.8-6.6,0.9c0-0.3-0.2-0.8-0.4-1.1c2.1-0.1,4.6-0.5,6-0.9L34.9,1.6z M28.9,5.3c-0.1-0.6-0.4-1.6-0.7-2.3l1.1-0.3
		C29.6,3.4,30,4.4,30.1,5L28.9,5.3z M30.9,4.9c0-0.6-0.2-1.5-0.5-2.2l1.2-0.2c0.3,0.7,0.5,1.6,0.6,2.2L30.9,4.9z M32.5,5.1
		c0.5-0.8,1.1-2,1.4-2.9l1.4,0.5c-0.5,1-1.1,2.1-1.6,2.8L32.5,5.1z"/>
	<path class="st0" d="M46.7,9.9c0,0.8-0.2,1.2-0.6,1.4c-0.5,0.2-1.2,0.3-2.3,0.3c0-0.4-0.3-1-0.5-1.4c0.7,0,1.5,0,1.7,0
		c0.2,0,0.3-0.1,0.3-0.3V8.1h-2.5v3.3h-1.4V8.1h-2.4c-0.2,1.3-0.6,2.6-1.5,3.6c-0.2-0.3-0.8-0.8-1.1-0.9c1.3-1.4,1.4-3.6,1.4-5.3
		V1.2h9.1V9.9z M41.3,6.7V5.2H39v0.2c0,0.4,0,0.8,0,1.3H41.3z M39,2.5v1.4h2.3V2.5H39z M45.3,2.5h-2.5v1.4h2.5V2.5z M45.3,6.7V5.2
		h-2.5v1.5H45.3z"/>
	<path class="st0" d="M57.4,3.3c0.6,0,1,0,1.3-0.1v1.6c-0.3,0-0.7,0-1.3,0h-0.9v0.4c0,3-0.7,4.8-3.6,6.1l-1.3-1.2
		C54,9.3,55,8.2,55,5.3V4.8h-2.8v1.6c0,0.5,0,1,0,1.3h-1.7c0-0.2,0.1-0.7,0.1-1.3V4.8h-1c-0.6,0-1,0-1.3,0V3.2
		c0.2,0,0.7,0.1,1.3,0.1h1V2.2c0-0.5,0-0.9-0.1-1.1h1.7c0,0.2-0.1,0.6-0.1,1.1v1.2H55V2.1c0-0.5,0-0.9-0.1-1.1h1.7
		c0,0.2-0.1,0.6-0.1,1.1v1.3H57.4z"/>
	<path class="st0" d="M66.6,9.5c0,0.5,0,1.3,0.1,1.6h-1.9c0-0.3,0.1-1,0.1-1.6V5.5c-1.2,0.6-2.7,1.2-4.1,1.6l-0.9-1.5
		C62,5.3,64,4.4,65.3,3.5c1.2-0.8,2.5-1.8,3.1-2.7L69.8,2c-0.9,0.9-2,1.8-3.2,2.6V9.5z"/>
	<path class="st0" d="M79,7.8c-1.2-0.6-3-1.3-4.3-1.8v3.4c0,0.3,0.1,1.2,0.1,1.7h-1.9c0.1-0.5,0.1-1.2,0.1-1.7V2.5
		c0-0.4,0-1-0.1-1.5h1.9c0,0.4-0.1,0.9-0.1,1.5v1.8c1.6,0.5,3.9,1.3,5,1.9L79,7.8z"/>
</g>
</svg>
