<?xml version="1.0" encoding="utf-8"?>
<!-- Generator: Adobe Illustrator 24.0.3, SVG Export Plug-In . SVG Version: 6.00 Build 0)  -->
<svg version="1.1" id="レイヤー_1" xmlns="http://www.w3.org/2000/svg" xmlns:xlink="http://www.w3.org/1999/xlink" x="0px"
	 y="0px" width="92px" height="32px" viewBox="0 0 92 32" style="enable-background:new 0 0 92 32;" xml:space="preserve">
<style type="text/css">
	.st0{fill:#595858;}
</style>
<g>
	<g>
		<path class="st0" d="M7.2,17.2c0.9-0.8,1.8-2.1,2.2-2.8c-0.4,0.1-2.3,0.5-4.3,0.9v3.7c0,0.9,0.3,1.2,1.8,1.2c1.5,0,3-0.2,4.4-0.5
			l-0.1,1.9c-1.2,0.2-2.8,0.3-4.3,0.3c-3.2,0-3.7-0.8-3.7-2.4v-3.8c-1.2,0.3-2.4,0.5-2.9,0.6L0,14.4c0.7-0.1,1.9-0.3,3.3-0.5v-2
			c0-0.5,0-1.2-0.1-1.6h2.1c-0.1,0.4-0.1,1.1-0.1,1.6v1.7c2-0.4,4-0.8,4.6-0.9c0.4-0.1,0.7-0.2,1-0.3l1.3,1.1
			c-0.1,0.2-0.3,0.5-0.5,0.8c-0.6,1.2-1.9,3.1-2.9,4.1L7.2,17.2z"/>
		<path class="st0" d="M22.5,12.7c0.4,0,0.7,0,1.1-0.1l1.2,0.6c0,0.2-0.1,0.6-0.1,0.7c-0.1,1.5-0.2,5.4-0.8,6.9
			c-0.3,0.7-0.8,1.1-1.8,1.1c-0.8,0-1.6-0.1-2.3-0.1l-0.2-1.9c0.7,0.1,1.4,0.2,2,0.2c0.4,0,0.6-0.2,0.8-0.5c0.4-0.9,0.6-3.7,0.6-5.2
			h-3.2c-0.5,3.7-1.8,5.9-4.4,7.7l-1.6-1.3c0.6-0.3,1.3-0.8,1.8-1.4c1.3-1.3,2-2.9,2.3-5H16c-0.5,0-1.2,0-1.8,0.1v-1.8
			c0.6,0.1,1.3,0.1,1.8,0.1h2c0-0.4,0-0.8,0-1.2c0-0.3,0-1-0.1-1.3H20c0,0.3-0.1,0.9-0.1,1.3c0,0.4,0,0.8-0.1,1.2H22.5z M23.6,12.5
			c-0.3-0.6-0.7-1.4-1.1-1.9l1.1-0.4c0.4,0.5,0.8,1.4,1.1,1.9L23.6,12.5z M25.2,9.4c0.4,0.5,0.9,1.4,1.1,1.9l-1.1,0.5
			c-0.3-0.6-0.7-1.4-1.1-1.9L25.2,9.4z"/>
		<path class="st0" d="M31.7,16.8c-0.4,0.1-0.9,0.3-1.3,0.4v3.5c0,0.8-0.1,1.2-0.5,1.5c-0.4,0.3-1,0.3-1.9,0.3
			c0-0.4-0.2-1.1-0.4-1.5c0.5,0,1,0,1.2,0c0.2,0,0.2-0.1,0.2-0.2v-3.1c-0.5,0.1-0.9,0.3-1.3,0.4l-0.4-1.6c0.5-0.1,1.1-0.3,1.7-0.4
			v-2.4h-1.5v-1.5h1.5V9.4h1.5v2.6h1.3v1.5h-1.3v2l1.1-0.3L31.7,16.8z M37.6,17.8c0.7,1.1,1.8,2.2,3,2.7c-0.4,0.3-0.8,0.9-1.1,1.3
			c-1-0.6-1.9-1.6-2.7-2.7v3.3h-1.6V19c-0.8,1.2-1.9,2.2-3.1,2.9c-0.3-0.4-0.7-1-1.1-1.3c1.3-0.6,2.5-1.6,3.3-2.8h-2.4v-1.4h3.3V15
			h1.6v1.4h3.4v1.4H37.6z M39.9,10.8c-2.2,0.6-5.2,0.9-7.7,1.1c-0.1-0.4-0.3-1-0.4-1.3c2.5-0.2,5.3-0.5,7-1.1L39.9,10.8z M32.8,15.2
			c-0.1-0.7-0.5-1.8-0.9-2.7l1.3-0.3c0.4,0.8,0.8,1.9,1,2.6L32.8,15.2z M35.2,14.7c0-0.7-0.3-1.7-0.6-2.6l1.4-0.3
			c0.3,0.8,0.6,1.8,0.6,2.5L35.2,14.7z M37.1,15c0.5-0.9,1.3-2.3,1.6-3.4l1.6,0.6c-0.6,1.2-1.3,2.5-1.9,3.3L37.1,15z"/>
		<path class="st0" d="M53.6,20.5c0,0.9-0.2,1.3-0.8,1.6c-0.6,0.3-1.4,0.3-2.7,0.3c-0.1-0.4-0.3-1.2-0.5-1.6c0.8,0,1.7,0,2,0
			c0.3,0,0.4-0.1,0.4-0.3v-2.1h-3v3.9h-1.7v-3.9h-2.9c-0.3,1.5-0.8,3.1-1.8,4.2c-0.3-0.3-0.9-0.9-1.3-1.1c1.5-1.7,1.7-4.2,1.7-6.1
			v-5h10.6V20.5z M47.3,16.8v-1.7h-2.6v0.3c0,0.4,0,1,0,1.5H47.3z M44.7,11.9v1.6h2.6v-1.6H44.7z M51.9,11.9h-3v1.6h3V11.9z
			 M51.9,16.8v-1.7h-3v1.7H51.9z"/>
		<path class="st0" d="M66.1,12.9c0.7,0,1.2,0,1.5-0.1v1.9c-0.3,0-0.8,0-1.5,0h-1v0.5c0,3.5-0.8,5.6-4.2,7.1l-1.5-1.4
			c2.7-0.9,3.9-2.2,3.9-5.6v-0.5H60v1.9c0,0.6,0,1.2,0.1,1.5h-2c0-0.3,0.1-0.8,0.1-1.5v-1.9h-1.2c-0.7,0-1.2,0-1.5,0.1v-1.9
			c0.3,0,0.8,0.1,1.5,0.1h1.2v-1.4c0-0.5-0.1-1-0.1-1.3h2c0,0.3-0.1,0.7-0.1,1.3v1.4h3.3v-1.5c0-0.6,0-1-0.1-1.3h2
			c0,0.3-0.1,0.7-0.1,1.3v1.5H66.1z"/>
		<path class="st0" d="M76.8,20.1c0,0.6,0,1.5,0.1,1.8h-2.2c0.1-0.3,0.1-1.2,0.1-1.8v-4.6c-1.4,0.7-3.2,1.5-4.8,1.9l-1-1.7
			c2.5-0.5,4.8-1.6,6.4-2.5c1.4-0.9,2.9-2.1,3.7-3.2l1.5,1.4c-1.1,1.1-2.3,2.1-3.7,3V20.1z"/>
		<path class="st0" d="M91.2,18.1c-1.4-0.8-3.5-1.6-5.1-2.1v4c0,0.4,0.1,1.4,0.1,1.9h-2.2c0.1-0.5,0.1-1.4,0.1-1.9v-8
			c0-0.5,0-1.2-0.1-1.7h2.2c-0.1,0.5-0.1,1.1-0.1,1.7V14c1.9,0.5,4.6,1.5,5.9,2.2L91.2,18.1z"/>
	</g>
</g>
</svg>
