<?xml version="1.0" encoding="utf-8"?>
<!-- Generator: Adobe Illustrator 24.0.3, SVG Export Plug-In . SVG Version: 6.00 Build 0)  -->
<svg version="1.1" id="レイヤー_1" xmlns="http://www.w3.org/2000/svg" xmlns:xlink="http://www.w3.org/1999/xlink" x="0px"
	 y="0px" width="110px" height="60px" viewBox="0 0 110 60" style="enable-background:new 0 0 110 60;" xml:space="preserve">
<style type="text/css">
	.st0{fill:none;}
	.st1{fill:#FFFFFF;}
	.st2{fill:#0082CA;}
</style>
<g>
	<rect class="st0" width="110" height="60"/>
	<g>
		<path class="st1" d="M91.8,20.5c-1-3.1-3.9-5.4-7.4-5.4c-3.5,0-6.4,2.3-7.4,5.4l-2.6,7.7V15.5H60.8c-2.5,0-4.7,1-6.3,2.6v-2.6
			H40.3c-2.6,0-5,1.1-6.6,2.9v-2.9H20.4c-5.7,0-10.4,4.7-10.4,10.4c0,2.7,1.1,5.2,2.8,7.1H10v12h13.3c3.8,0,7.1-2,8.9-5
			c1.5,3,4.6,5,8.2,5h14.1v-2.6c1.6,1.6,3.9,2.6,6.3,2.6H100L91.8,20.5z"/>
		<g>
			<g>
				<path class="st2" d="M23.3,35H12.1v3.5h11.2c2.2,0,3.9-1.8,3.9-3.9c0-2.2-1.8-3.9-3.9-3.9h-2.9c-2.6,0-4.8-2.1-4.8-4.8
					c0-2.6,2.1-4.8,4.8-4.8h11.2v-3.5H20.4c-4.6,0-8.3,3.7-8.3,8.3c0,4.6,3.7,8.3,8.3,8.3h2.9c0.2,0,0.4,0.2,0.4,0.4
					C23.7,34.9,23.5,35,23.3,35z"/>
				<path class="st2" d="M20.4,25.5h11.2V22H20.4c-2.2,0-3.9,1.8-3.9,3.9c0,2.2,1.8,3.9,3.9,3.9h2.9c2.6,0,4.8,2.1,4.8,4.8
					c0,2.6-2.1,4.8-4.8,4.8H12.1v3.5h11.2c4.6,0,8.3-3.7,8.3-8.3s-3.7-8.3-8.3-8.3h-2.9c-0.2,0-0.4-0.2-0.4-0.4
					C20,25.7,20.1,25.5,20.4,25.5z"/>
			</g>
			<g>
				<path class="st2" d="M60.8,22c-1.5,0-2.7,1.2-2.7,2.7v11.2c0,1.5,1.2,2.7,2.7,2.7H68v-7.9h-5.6v3.5h2.1V35h-2.1
					c-0.5,0-0.8-0.4-0.8-0.8v-7.9c0-0.5,0.4-0.8,0.8-0.8h10V22H60.8z"/>
				<path class="st2" d="M82.9,38.6h8.2L85.5,22c-0.1-0.5-0.6-0.8-1.1-0.8c-0.5,0-0.9,0.3-1.1,0.8l-7.2,20.9h4.2l2.5-7.4V38.6z
					 M84.4,31.1l1.2,3.6h-2.4L84.4,31.1z"/>
				<path class="st2" d="M89.9,21.3c-0.7-2.4-2.9-4.1-5.5-4.1c-2.6,0-4.7,1.7-5.4,4l-6.6,19.2V26.3h-10v3.5h6.4v9.5h-8.1
					c-1.9,0-3.5-1.6-3.5-3.5V24.7c0-1.9,1.6-3.5,3.5-3.5h11.6v-3.5c0,0-11.6,0-11.6,0c-3.9,0-7.1,3.2-7.1,7.1l0,11.2
					c0,3.9,3.2,7.1,7.1,7.1h14.5l7.3-21.2c0.3-0.8,1-1.3,1.9-1.3c0.9,0,1.6,0.6,1.9,1.4l5.9,17.6h-9.4v3.5h14.3h0L89.9,21.3z"/>
			</g>
			<g>
				<path class="st2" d="M40.3,39.4c-1.9,0-3.5-1.6-3.5-3.5l0-11.2c0-1.9,1.6-3.5,3.5-3.5h12v-3.5l-12,0c-3.9,0-7.1,3.2-7.1,7.1
					l0,11.2c0,3.9,3.2,7.1,7.1,7.1h12v-3.5H40.3z"/>
				<path class="st2" d="M41.1,34.2l8.7,0v-3.5H37.6v5.2c0,1.5,1.2,2.7,2.7,2.7h12V35H42C41.5,35,41.1,34.7,41.1,34.2z"/>
				<path class="st2" d="M49.9,26.3l-8.7,0c0-0.5,0.4-0.8,0.8-0.8h10.4V22h-12c-1.5,0-2.7,1.2-2.7,2.7v5.2h12.2V26.3z"/>
			</g>
		</g>
		<g>
			<path d="M95,20.5c0.7,0,1.4-0.3,2-0.8c0.5-0.5,0.8-1.2,0.8-2c0-0.7-0.3-1.4-0.8-2c-0.5-0.5-1.2-0.8-2-0.8c-1.5,0-2.8,1.2-2.8,2.8
				c0,0.7,0.3,1.4,0.8,2C93.6,20.2,94.3,20.5,95,20.5z M92.7,17.8c0-0.6,0.2-1.2,0.7-1.7c0.4-0.4,1-0.7,1.7-0.7
				c0.6,0,1.2,0.2,1.7,0.7c0.4,0.4,0.7,1,0.7,1.7c0,1.3-1.1,2.4-2.4,2.4c-0.6,0-1.2-0.2-1.7-0.7C92.9,19,92.7,18.4,92.7,17.8z"/>
			<path d="M94.3,18v1.3h-0.4v-3.1h1.1c0.4,0,0.7,0,0.9,0.2c0.2,0.2,0.3,0.4,0.3,0.7c0,0.7-0.6,0.8-0.7,0.8l0.9,1.3H96L95.1,18H94.3
				z M94.3,17.7h0.8c0.1,0,0.3,0,0.4,0c0.3-0.1,0.4-0.3,0.4-0.5c0-0.1,0-0.3-0.2-0.4c-0.2-0.1-0.4-0.1-0.6-0.1h-0.8V17.7z"/>
		</g>
	</g>
</g>
</svg>
