<?xml version="1.0" encoding="utf-8"?>
<!-- Generator: Adobe Illustrator 22.1.0, SVG Export Plug-In . SVG Version: 6.00 Build 0)  -->
<svg version="1.1" id="レイヤー_1" xmlns="http://www.w3.org/2000/svg" xmlns:xlink="http://www.w3.org/1999/xlink" x="0px"
	 y="0px" viewBox="0 0 24 24" style="enable-background:new 0 0 24 24;" xml:space="preserve">
<style type="text/css">
	.st0{fill:none;}
	.st1{fill:#535353;}
</style>
<g>
	<rect class="st0" width="24" height="24"/>
	<polygon class="st1" points="14.8,21 14,17 10,17 9.2,21 5,21 5,23 19,23 19,21 	"/>
	<path class="st1" d="M22.5,2h-21C0.7,2,0,2.7,0,3.5v11C0,15.3,0.7,16,1.5,16h21c0.8,0,1.5-0.7,1.5-1.5v-11C24,2.7,23.3,2,22.5,2z
		 M22,13c0,0.6-0.5,1-1,1H3c-0.5,0-1-0.4-1-1V5c0-0.6,0.5-1,1-1h18c0.5,0,1,0.4,1,1V13z"/>
</g>
</svg>
