<?xml version="1.0" encoding="utf-8"?>
<!-- Generator: Adobe Illustrator 22.1.0, SVG Export Plug-In . SVG Version: 6.00 Build 0)  -->
<svg version="1.1" id="レイヤー_1" xmlns="http://www.w3.org/2000/svg" xmlns:xlink="http://www.w3.org/1999/xlink" x="0px"
	 y="0px" viewBox="0 0 24 24" style="enable-background:new 0 0 24 24;" xml:space="preserve">
<style type="text/css">
	.st0{fill:none;}
	.st1{fill:#535353;}
</style>
<g>
	<rect class="st0" width="24" height="24"/>
	<path class="st1" d="M17.5,0H15H9H6.5C5.7,0,5,0.7,5,1.5v21C5,23.3,5.7,24,6.5,24h11c0.8,0,1.5-0.7,1.5-1.5v-21
		C19,0.7,18.3,0,17.5,0z M14,23h-4v-1h4V23z M17,19c0,0.5-0.5,1-1,1H8c-0.6,0-1-0.5-1-1V3c0-0.5,0.4-1,1-1h1.7L10,3h4l0.3-1H16
		c0.5,0,1,0.5,1,1V19z"/>
</g>
</svg>
