<?xml version="1.0" encoding="utf-8"?>
<!-- Generator: Adobe Illustrator 23.0.1, SVG Export Plug-In . SVG Version: 6.00 Build 0)  -->
<svg version="1.1" id="レイヤー_1" xmlns="http://www.w3.org/2000/svg" xmlns:xlink="http://www.w3.org/1999/xlink" x="0px"
	 y="0px" viewBox="0 0 28 28" style="enable-background:new 0 0 28 28;" xml:space="preserve">
<style type="text/css">
	.st0{fill:none;}
	.st1{fill:#FFFFFF;}
</style>
<g>
	<rect class="st0" width="28" height="28"/>
	<path class="st1" d="M22.61,8.66c-0.63,0.28-1.31,0.47-2.03,0.56c0.73-0.44,1.29-1.13,1.55-1.96c-0.68,0.41-1.44,0.7-2.24,0.86
		C19.25,7.43,18.33,7,17.31,7c-1.95,0-3.53,1.58-3.53,3.53c0,0.28,0.03,0.55,0.09,0.81c-2.94-0.15-5.54-1.55-7.28-3.69
		c-0.3,0.52-0.48,1.13-0.48,1.78c0,1.23,0.62,2.31,1.57,2.94c-0.58-0.02-1.12-0.18-1.6-0.44c0,0.01,0,0.03,0,0.04
		c0,1.71,1.22,3.14,2.84,3.47c-0.3,0.08-0.61,0.12-0.93,0.12c-0.23,0-0.45-0.02-0.66-0.06c0.45,1.4,1.75,2.43,3.3,2.45
		c-1.21,0.95-2.73,1.51-4.39,1.51c-0.29,0-0.57-0.02-0.84-0.05c1.56,1,3.42,1.59,5.42,1.59c6.5,0,10.06-5.39,10.06-10.06
		c0-0.15,0-0.31-0.01-0.46C21.54,9.99,22.14,9.37,22.61,8.66z"/>
</g>
</svg>
