<?xml version="1.0" encoding="utf-8"?>
<!-- Generator: Adobe Illustrator 19.1.0, SVG Export Plug-In . SVG Version: 6.00 Build 0)  -->
<svg version="1.1" id="レイヤー_1" xmlns="http://www.w3.org/2000/svg" xmlns:xlink="http://www.w3.org/1999/xlink" x="0px"
	 y="0px" viewBox="0 0 29.4 29.3" style="enable-background:new 0 0 29.4 29.3;" xml:space="preserve">
<style type="text/css">
	.st0{fill:#FFFFFF;}
	.st1{fill:#B3B3B3;}
	.st2{fill:#E61F00;}
</style>
<g>
	<g>
		<g>
			<polygon class="st0" points="8.2,28.3 8.2,1 22.5,1 28.4,6.8 28.4,28.3 			"/>
			<path class="st1" d="M22.1,2l5.2,5.2v20.1H9.2V2H22.1 M22.9,0H7.2v29.3h22.2V6.4L22.9,0L22.9,0z"/>
		</g>
	</g>
	<rect y="4" class="st2" width="17.9" height="6.4"/>
	<g>
		<polygon class="st1" points="22.1,1.8 22.1,7.3 27.4,7.3 		"/>
	</g>
	<path class="st2" d="M13,24.4c-0.9,0-1.4-0.3-1.6-0.9c-0.1-0.6,0.2-1.5,2.6-2.6c0.6-0.3,1.4-0.6,2.2-0.9c0.2-0.6,0.4-1.3,0.5-2
		c-0.9-1-1.5-2.1-1.7-3.2c-0.3-1.3-0.2-2.3,0.2-2.8c0.2-0.3,0.5-0.4,0.8-0.4c0.6,0,1.2,0.5,1.7,1.2c0.5,0.8,0.4,3,0.1,4.8
		c0.5,0.5,1.1,1,1.7,1.4c2-0.4,3.6-0.4,4.7,0.1c1.6,0.6,1.6,1.4,1.5,1.7c-0.1,0.5-0.6,1-1.8,1c-0.5,0-1.1-0.1-1.8-0.3
		c-0.8-0.3-1.8-0.8-2.8-1.4c-0.7,0.2-1.5,0.4-2.3,0.6c-0.8,2.1-2,3.4-3.5,3.6C13.4,24.4,13.2,24.4,13,24.4z M15.7,21.3
		c-0.4,0.2-0.9,0.3-1.2,0.5c-1.8,0.8-2.1,1.4-2.1,1.5c0,0,0.2,0.1,0.6,0.1c0.1,0,0.2,0,0.4,0C14.5,23.3,15.2,22.3,15.7,21.3z
		 M20.8,20c0.6,0.3,1.1,0.6,1.6,0.7c0.5,0.2,1,0.3,1.5,0.3c0.6,0,0.8-0.2,0.9-0.2c0,0-0.2-0.3-0.9-0.6C23.2,19.9,22.1,19.8,20.8,20z
		 M17.5,19.6L17.5,19.6c0.2,0,0.5-0.1,0.7-0.2l0,0l0.1,0c-0.2-0.2-0.4-0.3-0.6-0.5l0,0l0,0C17.6,19.2,17.5,19.4,17.5,19.6L17.5,19.6
		z M16.1,12.7c-0.1,0.1-0.4,0.5,0,1.9c0.1,0.7,0.5,1.3,1,2c0.2-1.7,0.1-2.9-0.1-3.3C16.6,12.9,16.2,12.7,16.1,12.7z"/>
	<g>
		<path class="st0" d="M4.5,7.7v1.2H3.7V5.5h1.3c0.5,0,0.8,0.1,1,0.3c0.2,0.2,0.4,0.5,0.4,0.8c0,0.4-0.1,0.7-0.4,0.9
			C5.8,7.6,5.5,7.7,5,7.7H4.5z M4.5,6v1.2h0.2c0.4,0,0.6-0.1,0.8-0.2c0.1-0.1,0.2-0.3,0.2-0.5c0-0.2-0.1-0.3-0.2-0.4
			C5.4,6,5.1,6,4.8,6H4.5z"/>
		<path class="st0" d="M7.5,8.9V5.5h1.1c0.5,0,0.9,0.1,1.2,0.2s0.5,0.3,0.7,0.6c0.2,0.3,0.2,0.6,0.2,1c0,0.4-0.1,0.7-0.2,0.9
			C10.2,8.4,10,8.6,9.7,8.7C9.4,8.9,9,8.9,8.6,8.9H7.5z M8.2,6v2.4h0.4c0.8,0,1.2-0.4,1.2-1.2C9.8,6.4,9.4,6,8.6,6H8.2z"/>
		<path class="st0" d="M14.1,6h-1.7v0.8H14v0.6h-1.5v1.6h-0.8V5.5h2.4V6z"/>
	</g>
</g>
</svg>
