<svg id="レイヤー_1" data-name="レイヤー 1" xmlns="http://www.w3.org/2000/svg" viewBox="0 0 134.72 134.72"><defs><style>.cls-1{fill:none;}.cls-2{fill:#fff;}</style></defs><title>icon_service_c</title><rect class="cls-1" width="134.72" height="134.72"/><path class="cls-2" d="M61.43,24.15l-.22-.61-.1-.28c0,.09-.06.19-.1.28l-.3.87h.81Z" transform="translate(0 -0.41)"/><path class="cls-2" d="M102.6,109.86V82.06H32.12V79.71H51.31V77.5a3,3,0,1,1,1.56-.12v2.33H102.6V39.38a5.84,5.84,0,0,0-5.82-5.87h-7.1V29.59h7a5.88,5.88,0,0,0,0-11.75H38a5.88,5.88,0,0,0,0,11.75h5.88v3.92H38.05a5.94,5.94,0,0,0-5.93,5.87v70.48h-2v7.83h74.4v-7.83ZM81.07,78.53h-4.7V77h4.7Zm7,0h-4.7V77h4.7ZM77.67,20.81h4.8v1.54H79.35v1h2.74v1.53H79.35v1.23h3.27V27.7h-5Zm-10.27,0h1.9l1.35,4,1.34-4H73.9V27.7H72.29V24.89l-1,2.81H70l-1-2.95V27.7H67.4Zm-7.13,0H62l2.46,6.89H62.66L62.05,26H60.18l-.64,1.74H57.8Zm-10.88,2A3.22,3.22,0,0,1,50,21.63a3.05,3.05,0,0,1,1-.72,3.27,3.27,0,0,1,1.27-.25,3.72,3.72,0,0,1,.91.11,2.61,2.61,0,0,1,.74.3,2.56,2.56,0,0,1,1,1l.13.27-1.17,1.09L53.68,23a1.61,1.61,0,0,0-.5-.57,1.35,1.35,0,0,0-.78-.2,1.5,1.5,0,0,0-.6.12,1.3,1.3,0,0,0-.48.37,1.74,1.74,0,0,0-.33.62,2.65,2.65,0,0,0-.13.89,2.78,2.78,0,0,0,.14,1,2,2,0,0,0,.35.64,1.3,1.3,0,0,0,.49.35,1.67,1.67,0,0,0,1.34,0,1,1,0,0,0,.36-.3v-.7H51.91V23.59h3.21v2.77l0,.09a2.77,2.77,0,0,1-2.65,1.39,3.44,3.44,0,0,1-1.29-.24,2.9,2.9,0,0,1-1-.72,3.16,3.16,0,0,1-.69-1.15,4.7,4.7,0,0,1-.23-1.51A4.43,4.43,0,0,1,49.39,22.76ZM47,29.59H86.55v3.92H47Zm-9,7.83H96.73V68.75H38ZM97.12,96.55H82.63V86.36H97.12Z" transform="translate(0 -0.41)"/><polygon class="cls-2" points="78.43 66.38 94.77 50 94.77 47.2 75.63 66.38 78.43 66.38"/><polygon class="cls-2" points="89.65 66.38 94.77 61.22 94.77 54.08 82.51 66.38 89.65 66.38"/></svg>