<svg id="レイヤー_1" data-name="レイヤー 1" xmlns="http://www.w3.org/2000/svg" viewBox="0 0 134.72 134.72"><defs><style>.cls-1{fill:none;}.cls-2{fill:#fff;}</style></defs><title>icon_service_a</title><rect class="cls-1" width="134.72" height="134.72"/><path class="cls-2" d="M106,38.6a2,2,0,0,0-1-2.12c-6.12-3-10-3.33-16.56-1.47a2.43,2.43,0,0,0-1.36,1.33,24.12,24.12,0,0,0-8.61,4.6H56.28A24.19,24.19,0,0,0,47.9,36.4,2.39,2.39,0,0,0,46.52,35C40,33.15,36.08,33.5,30,36.48a2.08,2.08,0,0,0-1.08,2,24.19,24.19,0,0,0-8.62,33.78L21,94c.13,3.53,3.68,6.64,7.94,7.46s8.72-.75,10.15-4l6.28-14.19a23.94,23.94,0,0,0,9.33-4H80a24,24,0,0,0,9.33,4l6.28,14.19c1.43,3.23,5.89,4.8,10.15,4s7.82-3.93,7.94-7.46l.79-21.71A24.18,24.18,0,0,0,106,38.6ZM49.93,59a2,2,0,0,1-2,2H41.31v7a2,2,0,0,1-2,2h-4.7a2,2,0,0,1-2-2v-7H26a2,2,0,0,1-2-2v-4.7a2,2,0,0,1,2-2H32.7V46a2,2,0,0,1,2-2h4.7a2,2,0,0,1,2,2v6.26H48a2,2,0,0,1,2,2ZM65.2,62.47H56.58V58.16H65.2Zm12.92,0H69.5V58.16h8.62ZM97.69,43.91a4.56,4.56,0,1,1-4.56,4.56A4.56,4.56,0,0,1,97.69,43.91ZM88.76,62a4.56,4.56,0,1,1,4.56-4.56A4.56,4.56,0,0,1,88.76,62Zm8.93,8.93a4.56,4.56,0,1,1,4.56-4.56A4.56,4.56,0,0,1,97.69,70.88ZM106.62,62a4.56,4.56,0,1,1,4.55-4.56A4.56,4.56,0,0,1,106.62,62Z" transform="translate(0 -0.41)"/></svg>