<svg id="レイヤー_1" data-name="レイヤー 1" xmlns="http://www.w3.org/2000/svg" viewBox="0 0 134.72 134.72"><defs><style>.cls-1{fill:none;}.cls-2{fill:#fff;}</style></defs><title>icon_service_b</title><rect class="cls-1" width="134.72" height="134.72"/><path class="cls-2" d="M94.77,16.86H40a5.87,5.87,0,0,0-5.87,5.88v90.05A5.87,5.87,0,0,0,40,118.67H94.77a5.87,5.87,0,0,0,5.87-5.88V22.74A5.87,5.87,0,0,0,94.77,16.86Zm-31,2H76.31a1.57,1.57,0,1,1,0,3.13H63.78a1.57,1.57,0,0,1,0-3.13Zm-5.22.26A1.57,1.57,0,1,1,57,20.65,1.57,1.57,0,0,1,58.56,19.08Zm8.88,98.15a5.87,5.87,0,1,1,5.87-5.87A5.87,5.87,0,0,1,67.44,117.23ZM94.77,103H40V24.7H94.77Z" transform="translate(0 -0.41)"/><polygon class="cls-2" points="76.47 100.64 92.81 84.26 92.81 81.46 73.67 100.64 76.47 100.64"/><polygon class="cls-2" points="87.69 100.64 92.81 95.48 92.81 88.34 80.55 100.64 87.69 100.64"/></svg>