<svg id="レイヤー_1" data-name="レイヤー 1" xmlns="http://www.w3.org/2000/svg" viewBox="0 0 134.72 134.72"><defs><style>.cls-1{fill:none;}.cls-2{fill:#fff;}</style></defs><title>icon_service_d</title><rect class="cls-1" width="134.72" height="134.72"/><path class="cls-2" d="M111.69,86l-7.53-7.53A12.45,12.45,0,0,0,106,74.84a44,44,0,0,0,0-20.38c-1.66-5.34-7.87-10.05-13.3-10.87a224,224,0,0,0-50.72,0c-5.43.82-11.64,5.53-13.3,10.87a44,44,0,0,0,0,20.38,12.7,12.7,0,0,0,1.86,3.62L23,86a3.31,3.31,0,0,0,0,4.69L44.26,111.9c1.71,1.71,5.23,4.21,7.1,2.91l5.21,3.55a.3.3,0,0,0,.38-.47l-4.31-4.31.23-.22L31.08,91.57a2.38,2.38,0,0,1,0-3.35l4.85-4.85A16.77,16.77,0,0,0,42,85.71a224.61,224.61,0,0,0,50.72,0,16.7,16.7,0,0,0,6.07-2.34l4.85,4.85a2.36,2.36,0,0,1,0,3.35L81.86,113.36l.22.22-4.31,4.31a.3.3,0,0,0,.38.47l5.21-3.55c1.88,1.3,5.4-1.2,7.1-2.91l21.23-21.22A3.33,3.33,0,0,0,111.69,86ZM87.61,80.72a355.32,355.32,0,0,1-40.5,0,10.64,10.64,0,0,1-6-2.5A11.92,11.92,0,0,1,37,72c0-.11-.06-.22-.08-.33a72,72,0,0,1,0-14.08c.93-4.54,5.42-8.77,10.18-9a355.32,355.32,0,0,1,40.5,0c4.48.56,9.59,4.22,10.18,9a72,72,0,0,1,0,14.08c0,.11,0,.23-.05.35h0a10.12,10.12,0,0,1-4.11,6.17A13.15,13.15,0,0,1,87.61,80.72Z" transform="translate(0 -0.41)"/><path class="cls-2" d="M56.18,55.31a1.66,1.66,0,0,0-1.68,1.54c-.19,3.36-.26,6.76-.19,10.12.06,3.71-2.61,4.11-3.56,4.09a3.89,3.89,0,0,1-3.92-4.14,81.74,81.74,0,0,1,.3-9.9,1.28,1.28,0,0,0-1.45-1.43A1.74,1.74,0,0,0,44,57.06a68.7,68.7,0,0,0-.35,9.83,7.49,7.49,0,0,0,7.33,7.26A6.41,6.41,0,0,0,57.54,67c0-3.41,0-6.81.14-10.22A1.36,1.36,0,0,0,56.18,55.31Z" transform="translate(0 -0.41)"/><path class="cls-2" d="M71.48,55.64c-3.09,0-4.63,0-7.72,0a2.43,2.43,0,0,0-2.45,2.7q-.11,7.19,0,14.36A1.49,1.49,0,0,0,63,74.38a1.53,1.53,0,0,0,1.56-1.76c0-2.55,0-3.83,0-6.39H71.1a1.35,1.35,0,0,0,1.42-1.51A1.49,1.49,0,0,0,71,63.14H64.48c0-1.43,0-2.15,0-3.58,0-.39.12-.7.51-.7h6.62a1.44,1.44,0,0,0,1.6-1.55A1.6,1.6,0,0,0,71.48,55.64Z" transform="translate(0 -0.41)"/><path class="cls-2" d="M83.16,55.41c-5.15-.06-8,4.86-8,9.38s2.89,9.44,8,9.38c4.8-.06,8.78-4.78,8.79-9.39S88,55.47,83.16,55.41ZM83.33,71c-3.53.1-4.81-3.45-4.83-6.21S80,58.5,83.37,58.57s5.14,3.2,5.13,6.22S86.61,70.91,83.33,71Z" transform="translate(0 -0.41)"/><path class="cls-2" d="M77.61,40.81a9.8,9.8,0,0,0-6.77-7.18V17.12h-7V33.63a9.8,9.8,0,0,0-6.78,7.18C64,40.5,70.77,40.5,77.61,40.81Z" transform="translate(0 -0.41)"/></svg>