<svg id="レイヤー_1" data-name="レイヤー 1" xmlns="http://www.w3.org/2000/svg" viewBox="0 0 120 40.02"><defs><style>.cls-1{fill:#fff;}.cls-2{fill:#117bbd;}</style></defs><title>logo-sega_w</title><path class="cls-1" d="M346.27,408.5a10.35,10.35,0,0,0-19.71,0l-3.43,10.28V401.87H304.86a12.15,12.15,0,0,0-8.47,3.43v-3.43H277.57a12.17,12.17,0,0,0-8.86,3.82v-3.82H251a13.83,13.83,0,0,0-10.12,23.25h-3.72v16.05h17.72a13.81,13.81,0,0,0,11.82-6.68,12.17,12.17,0,0,0,10.87,6.68h18.82v-3.42a12.14,12.14,0,0,0,8.47,3.42h52.3Z" transform="translate(-237.16 -401.16)"/><path class="cls-2" d="M254.88,427.89H239.93v4.7h14.95a5.26,5.26,0,1,0,0-10.51H251a6.37,6.37,0,0,1,0-12.74H266v-4.7H251a11.07,11.07,0,0,0,0,22.14h3.88a.56.56,0,0,1,0,1.11Z" transform="translate(-237.16 -401.16)"/><path class="cls-2" d="M251,415.16H266v-4.71H251A5.26,5.26,0,1,0,251,421h3.88a6.37,6.37,0,0,1,0,12.73H239.93v4.71h14.95a11.08,11.08,0,0,0,0-22.15H251a.55.55,0,1,1,0-1.1Z" transform="translate(-237.16 -401.16)"/><path class="cls-2" d="M304.86,410.45a3.61,3.61,0,0,0-3.6,3.59v15a3.6,3.6,0,0,0,3.6,3.59h9.69V422.08h-7.48v4.7h2.77v1.11h-2.77a1.11,1.11,0,0,1-1.1-1.11V416.26a1.1,1.1,0,0,1,1.1-1.1h13.29v-4.71Z" transform="translate(-237.16 -401.16)"/><path class="cls-2" d="M334.31,432.59h10.93l-7.41-22.08a1.48,1.48,0,0,0-1.42-1,1.5,1.5,0,0,0-1.41,1l-9.62,27.93h5.55l3.38-9.92Zm2-10,1.6,4.76h-3.22Z" transform="translate(-237.16 -401.16)"/><path class="cls-2" d="M343.65,409.57a7.59,7.59,0,0,0-14.55-.1l-8.74,25.63V416.26H307.07V421h8.59V433.7h-10.8a4.7,4.7,0,0,1-4.7-4.7V414a4.71,4.71,0,0,1,4.7-4.7h15.5v-4.7h-15.5a9.41,9.41,0,0,0-9.41,9.41V429a9.41,9.41,0,0,0,9.41,9.41h19.35l9.73-28.26a2.6,2.6,0,0,1,4.95,0l7.89,23.52H334.31v4.71h19Z" transform="translate(-237.16 -401.16)"/><path class="cls-2" d="M277.57,433.7a4.7,4.7,0,0,1-4.7-4.7V414a4.71,4.71,0,0,1,4.7-4.7h16.05v-4.7H277.57a9.41,9.41,0,0,0-9.41,9.41V429a9.41,9.41,0,0,0,9.41,9.41h16.05V433.7Z" transform="translate(-237.16 -401.16)"/><path class="cls-2" d="M278.68,426.78H290.3v-4.7H274V429a3.6,3.6,0,0,0,3.6,3.59h16.05v-4.7H279.78A1.11,1.11,0,0,1,278.68,426.78Z" transform="translate(-237.16 -401.16)"/><path class="cls-2" d="M290.3,416.26H278.68a1.1,1.1,0,0,1,1.11-1.1h13.83v-4.71H277.57A3.61,3.61,0,0,0,274,414V421H290.3Z" transform="translate(-237.16 -401.16)"/><path class="cls-1" d="M350.55,408.53a3.69,3.69,0,1,0,0-7.37,3.69,3.69,0,1,0,0,7.37Zm-3.17-3.69a3.18,3.18,0,1,1,.93,2.25A3.16,3.16,0,0,1,347.38,404.84Z" transform="translate(-237.16 -401.16)"/><path class="cls-1" d="M349.6,405.15v1.74h-.53V402.8h1.52a1.9,1.9,0,0,1,1.22.25,1.14,1.14,0,0,1,.43.95,1.06,1.06,0,0,1-1,1.12l1.15,1.77h-.65l-1.11-1.74Zm0-.45h1.09a2.11,2.11,0,0,0,.5,0,.63.63,0,0,0,.51-.66.74.74,0,0,0-.25-.57,1.14,1.14,0,0,0-.79-.18H349.6Z" transform="translate(-237.16 -401.16)"/></svg>