<svg id="レイヤー_1" data-name="レイヤー 1" xmlns="http://www.w3.org/2000/svg" viewBox="0 0 187.5 198.86"><defs><style>.cls-1{fill:#fff;}.cls-2{fill:#117bbd;}</style></defs><title>sega-60th</title><path class="cls-1" d="M374.14,450.77a18.49,18.49,0,0,0-5.38-8.49A38.32,38.32,0,0,0,389,408.54V359.32a38.32,38.32,0,0,0-38.28-38.27H330.65a38.19,38.19,0,0,0-29.71,14.18V321.05H242.6a38.32,38.32,0,0,0-38.27,38.28v49.21a38.26,38.26,0,0,0,16,31.08A23.89,23.89,0,0,0,207,473.13h-2.67v46.78H386v-6.84l5.87-9.59Z" transform="translate(-204.33 -321.05)"/><path class="cls-2" d="M242.61,343.83h51V328.34h-51a31,31,0,0,0-31,31v49.22a31,31,0,0,0,31,31h20a31,31,0,0,0,31-31V366.62H249.9v15.49h28.25v26.43A15.5,15.5,0,0,1,262.67,424H242.61a15.5,15.5,0,0,1-15.5-15.5V359.29A15.5,15.5,0,0,1,242.61,343.83Z" transform="translate(-204.33 -321.05)"/><path class="cls-2" d="M249.9,363h43.75V347.48h-51a11.85,11.85,0,0,0-11.85,11.83v49.23a11.84,11.84,0,0,0,11.85,11.85h20a11.84,11.84,0,0,0,11.85-11.85V385.76H249.9v15.49H259a3.64,3.64,0,0,1-3.65,3.65H249.9a3.64,3.64,0,0,1-3.65-3.65V366.62A3.64,3.64,0,0,1,249.9,363Z" transform="translate(-204.33 -321.05)"/><path class="cls-2" d="M350.7,328.34H330.65a31,31,0,0,0-31,31v49.22a31,31,0,0,0,31,31H350.7a31,31,0,0,0,31-31V359.32A31,31,0,0,0,350.7,328.34Zm0,95.7H330.65a15.49,15.49,0,0,1-15.49-15.5V359.29a15.49,15.49,0,0,1,15.49-15.46H350.7a15.48,15.48,0,0,1,15.49,15.46v49.25A15.49,15.49,0,0,1,350.7,424Z" transform="translate(-204.33 -321.05)"/><path class="cls-2" d="M350.7,347.48H330.65a11.85,11.85,0,0,0-11.85,11.83v49.23a11.85,11.85,0,0,0,11.85,11.85H350.7a11.85,11.85,0,0,0,11.85-11.85V359.31A11.85,11.85,0,0,0,350.7,347.48Zm-3.65,53.77a3.64,3.64,0,0,1-3.64,3.65h-5.47a3.64,3.64,0,0,1-3.64-3.65V366.62a3.64,3.64,0,0,1,3.64-3.65h5.47a3.64,3.64,0,0,1,3.64,3.65Z" transform="translate(-204.33 -321.05)"/><path class="cls-2" d="M234,480.42H211.61v7.06H234a7.89,7.89,0,0,0,0-15.78h-5.81a9.55,9.55,0,1,1,0-19.09h22.41v-7.06H228.22a16.61,16.61,0,1,0,0,33.21H234a.83.83,0,1,1,0,1.66Z" transform="translate(-204.33 -321.05)"/><path class="cls-2" d="M228.22,461.32h22.41v-7.05H228.22a7.89,7.89,0,1,0,0,15.77H234a9.55,9.55,0,1,1,0,19.1H211.61v7.05H234A16.61,16.61,0,0,0,234,463h-5.81a.83.83,0,1,1,0-1.66Z" transform="translate(-204.33 -321.05)"/><path class="cls-2" d="M309,454.27a5.4,5.4,0,0,0-5.4,5.38v22.43a5.4,5.4,0,0,0,5.4,5.4h14.53V471.7H312.32v7.06h4.15v1.66h-4.15a1.66,1.66,0,0,1-1.66-1.66V463a1.67,1.67,0,0,1,1.66-1.66h19.93v-7.05Z" transform="translate(-204.33 -321.05)"/><path class="cls-2" d="M353.18,487.48h16.39l-11.11-33.13a2.24,2.24,0,0,0-4.25,0l-14.43,41.88h8.32l5.08-14.87Zm3-15.05,2.4,7.16h-4.84Z" transform="translate(-204.33 -321.05)"/><path class="cls-2" d="M367.18,453a11.38,11.38,0,0,0-21.82-.16l-13.11,38.45V463H312.32V470h12.87v19.1H309a7.06,7.06,0,0,1-7.06-7.06V459.65a7.06,7.06,0,0,1,7.06-7h23.25v-7.06H309a14.11,14.11,0,0,0-14.11,14.11v22.42A14.11,14.11,0,0,0,309,496.19h29l14.6-42.37a3.9,3.9,0,0,1,7.42,0l11.84,35.28h-18.7v7.05h28.51Z" transform="translate(-204.33 -321.05)"/><path class="cls-2" d="M268.07,489.14a7.06,7.06,0,0,1-7.06-7.06V459.65a7.07,7.07,0,0,1,7.06-7h24.08v-7.05H268.07A14.12,14.12,0,0,0,254,459.66v22.42a14.11,14.11,0,0,0,14.11,14.11h24.08v-7.05Z" transform="translate(-204.33 -321.05)"/><path class="cls-2" d="M269.73,478.76h17.44V471.7h-24.5v10.38a5.4,5.4,0,0,0,5.4,5.4h24.08v-7.06H271.39A1.66,1.66,0,0,1,269.73,478.76Z" transform="translate(-204.33 -321.05)"/><path class="cls-2" d="M287.17,463H269.73a1.66,1.66,0,0,1,1.66-1.66h20.76v-7.05H268.07a5.4,5.4,0,0,0-5.4,5.38V470h24.5Z" transform="translate(-204.33 -321.05)"/><path class="cls-2" d="M222.68,509s0-.08,0-.13A4.05,4.05,0,0,0,221,506a5.77,5.77,0,0,0-2.33-1.1l3.07-2.7h-5.57l-2.61,2.68a6,6,0,0,0-2,4.25s0,.05,0,.09,0,0,0,.08h0c0,3,2.59,4.69,5.43,4.76h.35c2.78-.06,5.32-1.66,5.32-4.58h0s0-.05,0-.08,0-.06,0-.09A2.85,2.85,0,0,0,222.68,509ZM217.12,508a1.5,1.5,0,0,1,1.49,1.52,1.45,1.45,0,0,1-2.9-.06A1.46,1.46,0,0,1,217.12,508Z" transform="translate(-204.33 -321.05)"/><path class="cls-2" d="M229.12,502c-3.53,0-5.58,2.61-5.58,5.92,0,3.5,2,6.14,5.58,6.14s5.58-2.64,5.58-6.14C234.7,504.63,232.65,502,229.12,502Zm0,8.6c-1.19,0-1.52-1.67-1.52-2.57s.25-2.4,1.52-2.4,1.52,1.44,1.52,2.4S230.31,510.62,229.12,510.62Z" transform="translate(-204.33 -321.05)"/><polygon class="cls-2" points="36.91 181.16 32.88 181.16 32.88 183.86 31.73 183.86 31.73 187 32.88 187 32.88 192.85 36.91 192.85 36.91 187 38.06 187 38.06 183.86 36.91 183.86 36.91 181.16"/><rect class="cls-2" x="91.92" y="181.16" width="4.25" height="11.68"/><polygon class="cls-2" points="110.97 192.85 118.82 192.85 118.82 189.65 115.24 189.65 115.24 188.51 118.51 188.51 118.51 185.47 115.24 185.47 115.24 184.35 118.82 184.35 118.82 181.16 110.97 181.16 110.97 192.85"/><path class="cls-2" d="M334.69,506.27c0-2.95-2.23-4.06-4.87-4.06h-5.05v11.68h4.15v-3.75l1.86,3.75h4.9l-3.11-4.64A2.71,2.71,0,0,0,334.69,506.27Zm-5.77-.87h.25c.73,0,1.37.11,1.37,1s-.7,1-1.4,1h-.22Z" transform="translate(-204.33 -321.05)"/><path class="cls-2" d="M342.82,506.56l-1-.21c-.33-.08-.85-.14-.85-.58s.54-.62.91-.62a4.37,4.37,0,0,1,2.46.89l1.15-3a6.94,6.94,0,0,0-3.7-1c-2.54,0-5.07,1.55-5.07,4.33,0,1.82,1.39,2.8,3.05,3.1l.86.15c.38.08.94.12.94.65s-.67.7-1.08.7a4.42,4.42,0,0,1-2.65-1.07l-.22-.17-1.3,3.3a10.44,10.44,0,0,0,4.49,1.07c2.53,0,5.07-1.38,5.07-4.17C345.92,507.93,344.62,507,342.82,506.56Z" transform="translate(-204.33 -321.05)"/><path class="cls-2" d="M250.14,505.48a3,3,0,0,0-2.52,1.06v-4.33h-4v11.68h4v-4.24c0-.51.14-1,.76-1s.63.54.63,1v4.24h3.91v-5.05C252.92,507,252.19,505.48,250.14,505.48Z" transform="translate(-204.33 -321.05)"/><polygon class="cls-2" points="72.7 181.16 72.7 184.66 72.7 187.24 69.12 181.16 65.05 181.16 65.05 192.85 69.11 192.85 69.12 192.85 69.12 186.96 72.7 192.85 76.58 192.85 76.76 192.85 76.76 181.16 76.58 181.16 72.7 181.16"/><path class="cls-2" d="M259.61,502.21l-4.06,11.68h4.5l.34-1.45h3.07l.34,1.45h4.49l-4.06-11.68Zm1.54,7.45.77-3.56.78,3.56Z" transform="translate(-204.33 -321.05)"/><polygon class="cls-2" points="86.14 181.16 86.14 184.66 86.14 187.24 82.56 181.16 78.49 181.16 78.49 192.85 82.55 192.85 82.56 192.85 82.56 186.96 86.14 192.85 90.02 192.85 90.2 192.85 90.2 181.16 90.02 181.16 86.14 181.16"/><path class="cls-2" d="M350,502.21,346,513.89h4.49l.34-1.45h3.07l.34,1.45h4.49l-4.06-11.68Zm1.53,7.45.78-3.56.77,3.56Z" transform="translate(-204.33 -321.05)"/><polygon class="cls-2" points="103.57 187.65 101.68 181.16 97.25 181.16 101.77 192.85 105.36 192.85 109.89 181.16 105.46 181.16 103.57 187.65"/><path class="cls-2" d="M369.67,506.27c0-2.95-2.23-4.06-4.86-4.06h-5.06v11.68h4.16v-3.75l1.86,3.75h4.89l-3.11-4.64A2.71,2.71,0,0,0,369.67,506.27Zm-5.76-.87h.24c.73,0,1.37.11,1.37,1s-.7,1-1.4,1h-.21Z" transform="translate(-204.33 -321.05)"/><polygon class="cls-2" points="177.37 181.16 172.56 181.16 171.25 184.23 169.94 181.16 165.14 181.16 169.18 187.75 169.18 192.85 173.33 192.85 173.33 187.75 177.37 181.16"/></svg>