<svg id="レイヤー_1" data-name="レイヤー 1" xmlns="http://www.w3.org/2000/svg" viewBox="0 0 447.14 241.66"><defs><style>.cls-1{fill:#fff;}.cls-2{fill:#0082ca;}</style></defs><title>segagroup_logo</title><path class="cls-1" d="M126.52,225.11c-20.16,0-33.67-11.63-33.67-29,0-16.81,13.74-28.87,33-28.87A43,43,0,0,1,147,172.49l-3,7.78a30.37,30.37,0,0,0-17.36-5.4h-.68c-14.49,0-24.07,8.41-24.07,21.16,0,13.32,9.43,21.45,24.83,21.45a34.94,34.94,0,0,0,12.23-2V200.8H123.27v-7.43h24.46v27.75A56.91,56.91,0,0,1,126.52,225.11Z" transform="translate(-1 -0.97)"/><path class="cls-1" d="M181.92,188.61c-8.15,0-12.3,4.13-12.3,12.12V224h-8.46V182.51h8.23v5.05a14.77,14.77,0,0,1,12.38-6.17c.6,0,1.2.07,1.66.07v7.15Z" transform="translate(-1 -0.97)"/><path class="cls-1" d="M210.68,225.11c-12.91,0-22.12-9.18-22.12-22.14,0-12.33,9.51-21.58,22.12-21.58s22,9.25,22,21.86S223.43,225.11,210.68,225.11Zm-.08-36.5c-8.23,0-13.59,5.81-13.59,14.78,0,8.62,5.51,14.51,13.67,14.51s13.58-5.89,13.58-14.65S218.83,188.61,210.6,188.61Z" transform="translate(-1 -0.97)"/><path class="cls-1" d="M272.42,224v-5a16.24,16.24,0,0,1-13.51,6.16c-5.59,0-10.65-2.66-12.76-6.72-1.58-2.95-2-5.47-2-12.55V182.51h8.45V206c0,5.61.53,7.92,2.11,9.6a8.92,8.92,0,0,0,6.57,2.39,10.85,10.85,0,0,0,9.13-4.7c1.29-2,1.74-3.78,1.74-7.29V182.51h8.45V224Z" transform="translate(-1 -0.97)"/><path class="cls-1" d="M316.49,225.11a18.52,18.52,0,0,1-13.73-5.88v23.4H294.3V182.51h8.31v5.05a17.65,17.65,0,0,1,13.88-6.17h.38c11.32,0,19.55,9.25,19.55,21.86C336.42,216.08,328.19,225.11,316.49,225.11Zm-1.2-36.5c-7.85,0-12.83,5.6-12.83,14.43,0,9.25,4.83,14.86,12.83,14.86,7.7,0,12.68-5.75,12.68-14.65S323,188.61,315.29,188.61Z" transform="translate(-1 -0.97)"/><path class="cls-1" d="M407.54,28.33a38.58,38.58,0,0,0-73.45,0L321.31,66.65v-63H253.24A45.24,45.24,0,0,0,221.69,16.4V3.64H151.57a45.25,45.25,0,0,0-33,14.24V3.64h-66A51.56,51.56,0,0,0,14.83,90.27H1v59.81H67a51.53,51.53,0,0,0,44.07-24.89,45.37,45.37,0,0,0,40.5,24.89h70.12V137.32a45.24,45.24,0,0,0,31.55,12.76h194.9Z" transform="translate(-1 -0.97)"/><path class="cls-2" d="M67,100.58H11.31v17.53H67a19.6,19.6,0,0,0,0-39.19H52.56a23.72,23.72,0,1,1,0-47.43h55.69V14H52.56a41.25,41.25,0,0,0,0,82.5H67a2.07,2.07,0,0,1,0,4.13Z" transform="translate(-1 -0.97)"/><path class="cls-2" d="M52.56,53.14h55.69V35.61H52.56a19.6,19.6,0,0,0,0,39.19H67a23.72,23.72,0,0,1,0,47.44H11.31v17.53H67a41.25,41.25,0,0,0,0-82.5H52.56a2.07,2.07,0,0,1,0-4.13Z" transform="translate(-1 -0.97)"/><path class="cls-2" d="M253.25,35.61A13.41,13.41,0,0,0,239.84,49V104.7a13.41,13.41,0,0,0,13.41,13.41h36.09V78.92H261.5V96.45h10.31v4.13H261.5a4.12,4.12,0,0,1-4.12-4.13V57.27a4.12,4.12,0,0,1,4.12-4.13H311V35.61Z" transform="translate(-1 -0.97)"/><path class="cls-2" d="M363,118.11h40.72l-27.6-82.28a5.57,5.57,0,0,0-10.56-.12L329.71,139.77h20.68l12.6-37Zm7.52-37.36,6,17.77h-12Z" transform="translate(-1 -0.97)"/><path class="cls-2" d="M397.79,32.34a28.27,28.27,0,0,0-54.21-.4L311,127.46V57.27H261.5V74.8h32v47.44H253.25a17.53,17.53,0,0,1-17.53-17.54V49a17.52,17.52,0,0,1,17.53-17.49H311V14H253.24A35.06,35.06,0,0,0,218.18,49V104.7a35.07,35.07,0,0,0,35.07,35.07h72.1L361.6,34.5a9.7,9.7,0,0,1,18.45.1l29.39,87.64H363v17.53h70.83Z" transform="translate(-1 -0.97)"/><path class="cls-2" d="M151.56,122.24A17.53,17.53,0,0,1,134,104.7V49a17.52,17.52,0,0,1,17.53-17.49h59.82V14H151.56A35.06,35.06,0,0,0,116.5,49V104.7a35.07,35.07,0,0,0,35.07,35.07h59.81V122.24Z" transform="translate(-1 -0.97)"/><path class="cls-2" d="M155.69,96.46H199V78.92H138.16V104.7a13.4,13.4,0,0,0,13.4,13.41h59.82V100.58H159.81A4.13,4.13,0,0,1,155.69,96.46Z" transform="translate(-1 -0.97)"/><path class="cls-2" d="M199,57.27H155.69a4.13,4.13,0,0,1,4.13-4.12h51.56V35.61H151.56A13.39,13.39,0,0,0,138.16,49V74.8H199Z" transform="translate(-1 -0.97)"/><path class="cls-1" d="M423.5,28.47a13.78,13.78,0,0,0,13.75-13.76A13.74,13.74,0,1,0,423.5,28.47ZM411.67,14.71a11.83,11.83,0,1,1,3.47,8.37A11.79,11.79,0,0,1,411.67,14.71Z" transform="translate(-1 -0.97)"/><path class="cls-1" d="M420,15.87v6.48h-2V7.1h5.66c2.11,0,3.37,0,4.55.93a4.19,4.19,0,0,1,1.6,3.52,4,4,0,0,1-3.6,4.19l4.27,6.61H428l-4.14-6.48Zm0-1.69h4a7.59,7.59,0,0,0,1.86-.15,2.34,2.34,0,0,0,1.91-2.46,2.71,2.71,0,0,0-.91-2.13,4.31,4.31,0,0,0-3-.65H420Z" transform="translate(-1 -0.97)"/></svg>