<svg id="レイヤー_3" data-name="レイヤー 3" xmlns="http://www.w3.org/2000/svg" viewBox="0 0 280.52 92.53"><defs><style>.cls-1{fill:none;}.cls-2{fill:#fff;}.cls-3{fill:#0081cc;}.cls-4{fill:#6fba2c;}</style></defs><title>segasammy_logo</title><rect class="cls-1" width="280.52" height="92.53"/><path class="cls-2" d="M560.23,257.7h-.06a7.4,7.4,0,0,1-6.25,2.91c-5.63,0-9.41-4.08-9.41-9.88,0-5.6,3.33-10,9.64-10,4.65,0,7.51,2.4,8.15,6.14h-2.6c-.56-2.54-2.44-4.06-5.61-4.06-4.82,0-7,3.44-7,7.92,0,4.68,2.86,7.8,6.93,7.8s6-2.67,6-5.87v-.46h-6v-2.08h8.55v10.09H561Z" transform="translate(-451.59 -178.31)"/><path class="cls-2" d="M566.06,241.13h9.36c3.53,0,5.92,2.11,5.92,5.23a4.53,4.53,0,0,1-3.48,4.72v.08c2,.7,2.69,2,2.89,4.86.22,3.07.56,3.84.92,4.08v.11H579c-.42-.35-.5-1.07-.72-4.27-.2-2.8-1.38-3.79-4.07-3.79h-5.58v8.06h-2.52Zm2.52,9.07h5.95c2.8,0,4.2-1.33,4.2-3.49,0-2.33-1.12-3.5-4.06-3.5h-6.09Z" transform="translate(-451.59 -178.31)"/><path class="cls-2" d="M583.63,250.65c0-5.71,3.76-10,9.81-10s9.82,4.24,9.82,10-3.76,10-9.82,10S583.63,256.37,583.63,250.65Zm17,0c0-4.48-2.53-7.87-7.24-7.87s-7.23,3.39-7.23,7.87,2.53,7.85,7.23,7.85S600.68,255.14,600.68,250.65Z" transform="translate(-451.59 -178.31)"/><path class="cls-2" d="M605.92,254V241.13h2.52V253.8c0,3.26,1.93,4.65,5.24,4.65s5.08-1.39,5.08-4.65V241.13h2.52V254c0,4.62-3.39,6.46-7.68,6.46S605.92,258.66,605.92,254Z" transform="translate(-451.59 -178.31)"/><path class="cls-2" d="M624.7,241.13h8.35a6.08,6.08,0,0,1,4.76,1.84,5.31,5.31,0,0,1,1.35,3.63c0,3.49-2.1,5.6-6.47,5.6h-5.47v8H624.7Zm2.52,9.12h5.27c2.83,0,4.18-1.36,4.18-3.54s-1.49-3.5-4-3.5h-5.41Z" transform="translate(-451.59 -178.31)"/><polygon class="cls-3" points="35.29 46.35 32.26 53.33 135.37 53.33 138.4 46.35 35.29 46.35"/><polygon class="cls-4" points="135.37 53.33 238.5 53.33 241.53 46.35 138.4 46.35 135.37 53.33"/><path class="cls-2" d="M715.08,192.28l-5.93,19.54-6.23-19.54h-9.5l1.36,3.34h0a8.14,8.14,0,0,0-7.46-4.14,9.52,9.52,0,0,0-8.58,4.67h0c-1-2.55-3.77-4.67-7.75-4.67a9.5,9.5,0,0,0-8.57,4.67h0c-1-2.55-3.76-4.67-7.74-4.67a9.52,9.52,0,0,0-8.58,4.67c-1-2.43-3.63-4.67-7.78-4.67a9.26,9.26,0,0,0-8,4.56v-3.76h-8.79v25.33c-.6-.27-2.2-1.41-2.2-5.79v-10.6c0-6.93-5-9.63-12.19-9.63s-11.56,2.79-12.29,8.46h8.53a3.29,3.29,0,0,1,3.52-2.65c2,0,3.06.84,3.06,2.36s-.62,2-2.48,2.63-5.57.73-9.11,1.76a6.74,6.74,0,0,0-3.91,2.54,7.49,7.49,0,0,0-3.48-4.86c-3-2-8.18-3-12-3.79s-4-2-4-2.83.89-2.48,4.26-2.48c4.28,0,4.62,2.87,4.62,2.87h9.32c-.31-4.48-3.84-8.85-13.63-8.85-11.8,0-13.78,6.09-13.78,9.29a7.57,7.57,0,0,0,3.84,6.85c2.48,1.61,8.57,2.89,12,3.67s3.61,2.28,3.61,3.17-.83,2.81-5,2.81c-5.51,0-5.9-3.73-5.9-3.73h-8.39l-6.7-17.26h-12l-6.62,17.09v-6.73h-13.6v5.49h6.32c0,2.3-1,5.23-5.82,5.23-3.86,0-6.68-3.08-6.68-7.71s3-7.68,6.84-7.68,4.87,2,4.87,2h7.83c-.73-3.92-4.88-8.41-12.79-8.41-5.83,0-10.28,2.55-12.79,6.44v-5.71h-22v13.68a9.12,9.12,0,0,0-5.09-4.46c-2.75-1.16-8.09-2.2-11.31-2.85s-3.81-1.7-3.81-2.68,1-2.51,4.59-2.51c4.34,0,4.94,2.82,4.94,2.82h9c-.26-4.39-3.65-8.83-14-8.83-12.53,0-14.19,6.59-14.19,9.3a7.54,7.54,0,0,0,4.44,7.06c3.2,1.69,9.36,2.75,12.32,3.47s3.85,1.64,3.85,3-1.37,2.92-6,2.92c-5.43,0-6-3.66-6-3.66h-9.18c.17,4.78,4.18,10,15.37,10,8.42,0,13.36-3.18,15-6.8v6h22.49v-5.27c2.23,3.59,6.3,6.05,12.31,6.05a14.23,14.23,0,0,0,10.77-4.35l-1.4,3.57h8.92l1.76-5h11.25l1.75,5h8.75l-1.39-3.54c1.86,2.3,6,4.32,12.3,4.32,7.69,0,11.49-2.81,13.24-5.6.8,3.74,4.77,5.46,8.26,5.46,4.19,0,7.4-1.22,9-3.3a11.56,11.56,0,0,0,1.51,2.66h18.5V202.47a3.8,3.8,0,0,1,3.68-4.12c2,0,3.81,1.2,3.81,4.12v15.69H647V202.47a3.81,3.81,0,0,1,3.69-4.12c2,0,3.81,1.2,3.81,4.12v15.69h8.83V202.47a3.8,3.8,0,0,1,3.68-4.12c2,0,3.81,1.2,3.81,4.12v15.69h8.91V202.47a3.8,3.8,0,0,1,3.68-4.12c2,0,3.81,1.2,3.81,4.12v15.69H696v-17a12.69,12.69,0,0,0-.41-3.27h0l8.84,22.84c.66,1.69.53,4-2.77,4h-3.3l-3,6.9h7.05c3.17,0,8.39-.05,11.17-8.6l10.52-30.71ZM514.5,212.06H501.23V207.4h9.61v-5.49h-9.61v-4.34h13.3a14,14,0,0,0-1.83,7.09A15.29,15.29,0,0,0,514.5,212.06Zm34.92-4.55,3.66-10.38,3.63,10.38ZM610,208.66a4.44,4.44,0,0,1-4.71,4.49c-2.17,0-3.16-1.26-3.16-2.37a2.67,2.67,0,0,1,2.06-2.71c1.58-.52,3.85-.78,5.81-1.8Z" transform="translate(-451.59 -178.31)"/></svg>