<?xml version="1.0" encoding="utf-8"?>
<!-- Generator: Adobe Illustrator 24.0.3, SVG Export Plug-In . SVG Version: 6.00 Build 0)  -->
<svg version="1.1" id="レイヤー_1" xmlns="http://www.w3.org/2000/svg" xmlns:xlink="http://www.w3.org/1999/xlink" x="0px"
	 y="0px" width="24px" height="24px" viewBox="0 0 24 24" style="enable-background:new 0 0 24 24;" xml:space="preserve">
<style type="text/css">
	.st0{fill:#CD3C62;}
</style>
<g>
	<g>
		<g>
			<path class="st0" d="M22,20h-4.4l-1.1-2.7c-0.3-0.8-1-1.3-1.9-1.3h-0.1l3-6c0.7,0.1,1.4,0,2.1-0.2c2.6-0.9,4-3.7,3.1-6.3
				c-0.9-2.6-3.7-4-6.3-3.1c-2.6,0.9-4,3.7-3.1,6.3c0.2,0.7,0.6,1.3,1.1,1.8L10.5,16H9.4c-0.8,0-1.6,0.5-1.9,1.3L6.4,20H2
				c-1.1,0-2,0.9-2,2v2h24v-2C24,20.9,23.1,20,22,20z M21.8,3.7c0.7,2.1-0.4,4.4-2.5,5.1L19,7.8c1.6-0.5,2.4-2.2,1.9-3.8
				c-0.1-0.3-0.3-0.6-0.5-0.9l1-0.3C21.5,3.1,21.7,3.4,21.8,3.7z M20.6,2l-1.2,0.4C19,2.2,18.6,2,18,2l-0.3-1
				C18.8,0.9,19.8,1.3,20.6,2z M15.1,9.1c0.4,0.3,0.9,0.5,1.4,0.7L13.4,16h-1.8L15.1,9.1z M8.4,17.6C8.6,17.2,8.9,17,9.4,17H10l0,0
				h4l0,0h0.6c0.4,0,0.8,0.2,0.9,0.6l0.9,2.4h-9L8.4,17.6z"/>
		</g>
	</g>
</g>
</svg>
