<?xml version="1.0" encoding="utf-8"?>
<!-- Generator: Adobe Illustrator 22.1.0, SVG Export Plug-In . SVG Version: 6.00 Build 0)  -->
<svg version="1.1" id="レイヤー_1" xmlns="http://www.w3.org/2000/svg" xmlns:xlink="http://www.w3.org/1999/xlink" x="0px"
	 y="0px" width="24px" height="24px" viewBox="0 0 24 24" style="enable-background:new 0 0 24 24;" xml:space="preserve">
<style type="text/css">
	.st0{fill:none;}
	.st1{fill:#FB8C32;}
</style>
<g>
	<rect class="st0" width="24" height="24"/>
	<path class="st1" d="M5.5,16c-1.9,0-3.6-1-4.6-2.5l-0.8,6.4c-0.5,1.6,0.2,3.2,1.6,3.6C3.1,24,4.6,23,5.1,21.4l1.2-5.5
		C6,16,5.8,16,5.5,16z"/>
	<g>
		<rect x="5" y="9" class="st1" width="1" height="1"/>
		<rect x="18" y="9" class="st1" width="1" height="1"/>
		<path class="st1" d="M18.5,4c-1.9,0-3.6,1-4.6,2.5h-3.8C9.1,5,7.4,4,5.5,4C2.5,4,0,6.5,0,9.5S2.5,15,5.5,15c1.9,0,3.6-1,4.6-2.5
			h3.8c1,1.5,2.7,2.5,4.6,2.5c3,0,5.5-2.5,5.5-5.5S21.5,4,18.5,4z M8,10H6v2H5v-2H3V9h2V7h1v2h2V10z M21,10h-2v2h-1v-2h-2V9h2V7h1v2
			h2V10z"/>
	</g>
	<path class="st1" d="M23.9,19.9l-0.8-6.4c-1,1.5-2.7,2.5-4.6,2.5c-0.3,0-0.5,0-0.8-0.1l1.2,5.5c0.5,1.6,2,2.6,3.4,2.1
		C23.7,23.1,24.4,21.5,23.9,19.9z"/>
</g>
</svg>
